<svg xmlns="http://www.w3.org/2000/svg" width="84" height="84" viewBox="0 0 84 84">
  <g id="Grupo_1182664" data-name="Grupo 1182664" transform="translate(-716 -4870.616)">
    <g id="Grupo_1182625" data-name="Grupo 1182625" transform="translate(9.548 16.584)">
      <rect id="Rectángulo_456580" data-name="Rectángulo 456580" width="84" height="84" rx="5" transform="translate(706.452 4854.032)" fill="#b0a3c8"/>
      <g id="Icons" transform="translate(716.873 4864)">
        <g id="Grupo_1182492" data-name="Grupo 1182492">
          <g id="Grupo_1182491" data-name="Grupo 1182491">
            <path id="Trazado_1004393" data-name="Trazado 1004393" d="M56,54H8V25a3,3,0,0,1,3-3H53a3,3,0,0,1,3,3Z" fill="#2c455f"/>
          </g>
        </g>
        <g id="Grupo_1182494" data-name="Grupo 1182494">
          <g id="Grupo_1182493" data-name="Grupo 1182493">
            <path id="Trazado_1004394" data-name="Trazado 1004394" d="M54,25V51a1,1,0,0,1-1,1H11a1,1,0,0,1-1-1V25a1,1,0,0,1,1-1H53A1,1,0,0,1,54,25Z" fill="#e2effc"/>
          </g>
        </g>
        <g id="Grupo_1182496" data-name="Grupo 1182496">
          <g id="Grupo_1182495" data-name="Grupo 1182495">
            <path id="Trazado_1004395" data-name="Trazado 1004395" d="M53,24H11a1,1,0,0,0-1,1v1a1,1,0,0,1,1-1h4.037a17.378,17.378,0,0,0,.663,3.79l-1.29.75a.985.985,0,0,0-.36,1.36l3,5.2a.985.985,0,0,0,1.36.36l1.29-.74A17.037,17.037,0,0,0,28,40.51V42a1,1,0,0,0,1,1h6a1,1,0,0,0,1-1V40.51a17.037,17.037,0,0,0,8.3-4.79l1.29.74a.985.985,0,0,0,1.36-.36l3-5.2a.985.985,0,0,0-.36-1.36l-1.29-.75A17.438,17.438,0,0,0,48.963,25H53a1,1,0,0,1,1,1V25a1,1,0,0,0-1-1Z" fill="#c5def8"/>
          </g>
        </g>
        <g id="Grupo_1182498" data-name="Grupo 1182498">
          <g id="Grupo_1182497" data-name="Grupo 1182497">
            <path id="Trazado_1004396" data-name="Trazado 1004396" d="M58,60H6a2,2,0,0,1-2-2V56a2,2,0,0,1,2-2H58a2,2,0,0,1,2,2v2A2,2,0,0,1,58,60Z" fill="#2c455f"/>
          </g>
        </g>
        <g id="Grupo_1182500" data-name="Grupo 1182500">
          <g id="Grupo_1182499" data-name="Grupo 1182499">
            <path id="Trazado_1004397" data-name="Trazado 1004397" d="M36,56H28a1,1,0,0,1-1-1V54H37v1A1,1,0,0,1,36,56Z" fill="#00325a"/>
          </g>
        </g>
        <g id="Grupo_1182502" data-name="Grupo 1182502">
          <g id="Grupo_1182501" data-name="Grupo 1182501">
            <path id="Trazado_1004398" data-name="Trazado 1004398" d="M49.588,28.536,48.3,27.794a16.838,16.838,0,0,0,0-9.587l1.285-.742a1,1,0,0,0,.366-1.366l-3-5.2a1,1,0,0,0-1.366-.366l-1.292.746A16.954,16.954,0,0,0,36,6.493V5a1,1,0,0,0-1-1H29a1,1,0,0,0-1,1V6.493a16.96,16.96,0,0,0-8.3,4.789l-1.292-.746a1,1,0,0,0-1.366.366l-3,5.2a1,1,0,0,0,.366,1.366l1.285.742a16.838,16.838,0,0,0,0,9.587l-1.285.742a1,1,0,0,0-.366,1.366l3,5.2a1,1,0,0,0,1.366.366l1.292-.746A16.964,16.964,0,0,0,28,39.506V41a1,1,0,0,0,1,1h6a1,1,0,0,0,1-1V39.507a16.96,16.96,0,0,0,8.3-4.789l1.292.746a1,1,0,0,0,1.366-.366l3-5.2a1,1,0,0,0-.366-1.366Z" fill="#2c455f"/>
          </g>
        </g>
        <g id="Grupo_1182504" data-name="Grupo 1182504">
          <g id="Grupo_1182503" data-name="Grupo 1182503">
            <circle id="Elipse_13664" data-name="Elipse 13664" cx="13" cy="13" r="13" transform="translate(19 11)" fill="#00325a"/>
          </g>
        </g>
        <g id="Grupo_1182506" data-name="Grupo 1182506">
          <g id="Grupo_1182505" data-name="Grupo 1182505">
            <circle id="Elipse_13665" data-name="Elipse 13665" cx="13" cy="13" r="13" transform="translate(19 10)" fill="#6faded"/>
          </g>
        </g>
        <g id="Grupo_1182508" data-name="Grupo 1182508">
          <g id="Grupo_1182507" data-name="Grupo 1182507">
            <circle id="Elipse_13666" data-name="Elipse 13666" cx="11" cy="11" r="11" transform="translate(21 12)" fill="#f0f0f0"/>
          </g>
        </g>
        <g id="Grupo_1182515" data-name="Grupo 1182515">
          <g id="Grupo_1182510" data-name="Grupo 1182510">
            <g id="Grupo_1182509" data-name="Grupo 1182509">
              <circle id="Elipse_13667" data-name="Elipse 13667" cx="1.5" cy="1.5" r="1.5" transform="translate(25.5 22)" fill="#d2d2d2"/>
            </g>
          </g>
          <g id="Grupo_1182512" data-name="Grupo 1182512">
            <g id="Grupo_1182511" data-name="Grupo 1182511">
              <circle id="Elipse_13668" data-name="Elipse 13668" cx="1.5" cy="1.5" r="1.5" transform="translate(30.5 22)" fill="#d2d2d2"/>
            </g>
          </g>
          <g id="Grupo_1182514" data-name="Grupo 1182514">
            <g id="Grupo_1182513" data-name="Grupo 1182513">
              <circle id="Elipse_13669" data-name="Elipse 13669" cx="1.5" cy="1.5" r="1.5" transform="translate(35.5 22)" fill="#d2d2d2"/>
            </g>
          </g>
        </g>
        <g id="Grupo_1182517" data-name="Grupo 1182517">
          <g id="Grupo_1182516" data-name="Grupo 1182516">
            <path id="Trazado_1004399" data-name="Trazado 1004399" d="M43,23c0,.14,0,.29-.01.43a11.005,11.005,0,0,0-21.98,0C21,23.29,21,23.14,21,23a11,11,0,0,1,22,0Z" fill="#d2d2d2"/>
          </g>
        </g>
        <g id="Grupo_1182524" data-name="Grupo 1182524">
          <g id="Grupo_1182519" data-name="Grupo 1182519">
            <g id="Grupo_1182518" data-name="Grupo 1182518">
              <circle id="Elipse_13670" data-name="Elipse 13670" cx="1.5" cy="1.5" r="1.5" transform="translate(25.5 21)" fill="#b0a3c8"/>
            </g>
          </g>
          <g id="Grupo_1182521" data-name="Grupo 1182521">
            <g id="Grupo_1182520" data-name="Grupo 1182520">
              <circle id="Elipse_13671" data-name="Elipse 13671" cx="1.5" cy="1.5" r="1.5" transform="translate(30.5 21)" fill="#6faded"/>
            </g>
          </g>
          <g id="Grupo_1182523" data-name="Grupo 1182523">
            <g id="Grupo_1182522" data-name="Grupo 1182522">
              <circle id="Elipse_13672" data-name="Elipse 13672" cx="1.5" cy="1.5" r="1.5" transform="translate(35.5 21)" fill="#fab400"/>
            </g>
          </g>
        </g>
        <g id="Grupo_1182526" data-name="Grupo 1182526">
          <g id="Grupo_1182525" data-name="Grupo 1182525">
            <path id="Trazado_1004400" data-name="Trazado 1004400" d="M48,49v2a1,1,0,0,1-1,1H17a1,1,0,0,1-1-1V49a1,1,0,0,1,1-1H47A1,1,0,0,1,48,49Z" fill="#f0f0f0"/>
          </g>
        </g>
        <g id="Grupo_1182537" data-name="Grupo 1182537">
          <g id="Grupo_1182528" data-name="Grupo 1182528">
            <g id="Grupo_1182527" data-name="Grupo 1182527">
              <path id="Trazado_1004401" data-name="Trazado 1004401" d="M22,48v2a1,1,0,0,1-1,1H19a1,1,0,0,1-1-1V48Z" fill="#d2d2d2"/>
            </g>
          </g>
          <g id="Grupo_1182530" data-name="Grupo 1182530">
            <g id="Grupo_1182529" data-name="Grupo 1182529">
              <path id="Trazado_1004402" data-name="Trazado 1004402" d="M28,48v2a1,1,0,0,1-1,1H25a1,1,0,0,1-1-1V48Z" fill="#d2d2d2"/>
            </g>
          </g>
          <g id="Grupo_1182532" data-name="Grupo 1182532">
            <g id="Grupo_1182531" data-name="Grupo 1182531">
              <path id="Trazado_1004403" data-name="Trazado 1004403" d="M34,48v2a1,1,0,0,1-1,1H31a1,1,0,0,1-1-1V48Z" fill="#d2d2d2"/>
            </g>
          </g>
          <g id="Grupo_1182534" data-name="Grupo 1182534">
            <g id="Grupo_1182533" data-name="Grupo 1182533">
              <path id="Trazado_1004404" data-name="Trazado 1004404" d="M40,48v2a1,1,0,0,1-1,1H37a1,1,0,0,1-1-1V48Z" fill="#d2d2d2"/>
            </g>
          </g>
          <g id="Grupo_1182536" data-name="Grupo 1182536">
            <g id="Grupo_1182535" data-name="Grupo 1182535">
              <path id="Trazado_1004405" data-name="Trazado 1004405" d="M46,48v2a1,1,0,0,1-1,1H43a1,1,0,0,1-1-1V48Z" fill="#d2d2d2"/>
            </g>
          </g>
        </g>
        <g id="Grupo_1182548" data-name="Grupo 1182548">
          <g id="Grupo_1182539" data-name="Grupo 1182539">
            <g id="Grupo_1182538" data-name="Grupo 1182538">
              <path id="Trazado_1004406" data-name="Trazado 1004406" d="M21,50H19a1,1,0,0,1-1-1V47a1,1,0,0,1,1-1h2a1,1,0,0,1,1,1v2A1,1,0,0,1,21,50Z" fill="#a60d29"/>
            </g>
          </g>
          <g id="Grupo_1182541" data-name="Grupo 1182541">
            <g id="Grupo_1182540" data-name="Grupo 1182540">
              <path id="Trazado_1004407" data-name="Trazado 1004407" d="M27,50H25a1,1,0,0,1-1-1V47a1,1,0,0,1,1-1h2a1,1,0,0,1,1,1v2A1,1,0,0,1,27,50Z" fill="#3b1976"/>
            </g>
          </g>
          <g id="Grupo_1182543" data-name="Grupo 1182543">
            <g id="Grupo_1182542" data-name="Grupo 1182542">
              <path id="Trazado_1004408" data-name="Trazado 1004408" d="M33,50H31a1,1,0,0,1-1-1V47a1,1,0,0,1,1-1h2a1,1,0,0,1,1,1v2A1,1,0,0,1,33,50Z" fill="#00a0c8"/>
            </g>
          </g>
          <g id="Grupo_1182545" data-name="Grupo 1182545">
            <g id="Grupo_1182544" data-name="Grupo 1182544">
              <path id="Trazado_1004409" data-name="Trazado 1004409" d="M39,50H37a1,1,0,0,1-1-1V47a1,1,0,0,1,1-1h2a1,1,0,0,1,1,1v2A1,1,0,0,1,39,50Z" fill="#a60d29"/>
            </g>
          </g>
          <g id="Grupo_1182547" data-name="Grupo 1182547">
            <g id="Grupo_1182546" data-name="Grupo 1182546">
              <path id="Trazado_1004410" data-name="Trazado 1004410" d="M45,50H43a1,1,0,0,1-1-1V47a1,1,0,0,1,1-1h2a1,1,0,0,1,1,1v2A1,1,0,0,1,45,50Z" fill="#3b1976"/>
            </g>
          </g>
        </g>
      </g>
    </g>
  </g>
</svg>
